REM MD5 e00d38123c197aa93c7d401c43c8007a
FILE "Dengeki PlayStation D36 (Japan).bin" BINARY
  TRACK 01 MODE2/2352
    INDEX 01 00:00:00
  TRACK 02 AUDIO
    INDEX 00 46:56:04
    INDEX 01 46:58:04
  TRACK 03 AUDIO
    INDEX 00 48:34:22
    INDEX 01 48:36:22
  TRACK 04 AUDIO
    INDEX 00 50:22:24
    INDEX 01 50:24:24
  TRACK 05 AUDIO
    INDEX 00 51:24:41
    INDEX 01 51:26:41
  TRACK 06 AUDIO
    INDEX 00 53:08:20
    INDEX 01 53:10:20
REM LEADOUT 56:40:20
